<svg id="visual" viewBox="0 0 900 600" width="900" height="600" xmlns="http://www.w3.org/2000/svg" xmlns:xlink="http://www.w3.org/1999/xlink" version="1.1"><rect x="0" y="0" width="900" height="600" fill="#001220"></rect><path d="M0 348L21.5 341.7C43 335.3 86 322.7 128.8 331C171.7 339.3 214.3 368.7 257.2 372C300 375.3 343 352.7 385.8 345.2C428.7 337.7 471.3 345.3 514.2 355C557 364.7 600 376.3 642.8 369.7C685.7 363 728.3 338 771.2 337.2C814 336.3 857 359.7 878.5 371.3L900 383L900 601L878.5 601C857 601 814 601 771.2 601C728.3 601 685.7 601 642.8 601C600 601 557 601 514.2 601C471.3 601 428.7 601 385.8 601C343 601 300 601 257.2 601C214.3 601 171.7 601 128.8 601C86 601 43 601 21.5 601L0 601Z" fill="#fa7268"></path><path d="M0 447L21.5 445C43 443 86 439 128.8 425.3C171.7 411.7 214.3 388.3 257.2 378.5C300 368.7 343 372.3 385.8 385.7C428.7 399 471.3 422 514.2 428.7C557 435.3 600 425.7 642.8 425.7C685.7 425.7 728.3 435.3 771.2 434.2C814 433 857 421 878.5 415L900 409L900 601L878.5 601C857 601 814 601 771.2 601C728.3 601 685.7 601 642.8 601C600 601 557 601 514.2 601C471.3 601 428.7 601 385.8 601C343 601 300 601 257.2 601C214.3 601 171.7 601 128.8 601C86 601 43 601 21.5 601L0 601Z" fill="#ef5f67"></path><path d="M0 448L21.5 453.3C43 458.7 86 469.3 128.8 465.5C171.7 461.7 214.3 443.3 257.2 437.3C300 431.3 343 437.7 385.8 438.3C428.7 439 471.3 434 514.2 432.7C557 431.3 600 433.7 642.8 439.3C685.7 445 728.3 454 771.2 457.7C814 461.3 857 459.7 878.5 458.8L900 458L900 601L878.5 601C857 601 814 601 771.2 601C728.3 601 685.7 601 642.8 601C600 601 557 601 514.2 601C471.3 601 428.7 601 385.8 601C343 601 300 601 257.2 601C214.3 601 171.7 601 128.8 601C86 601 43 601 21.5 601L0 601Z" fill="#e34c67"></path><path d="M0 500L21.5 500.7C43 501.3 86 502.7 128.8 501.5C171.7 500.3 214.3 496.7 257.2 499.7C300 502.7 343 512.3 385.8 509.8C428.7 507.3 471.3 492.7 514.2 483.5C557 474.3 600 470.7 642.8 469.5C685.7 468.3 728.3 469.7 771.2 470.2C814 470.7 857 470.3 878.5 470.2L900 470L900 601L878.5 601C857 601 814 601 771.2 601C728.3 601 685.7 601 642.8 601C600 601 557 601 514.2 601C471.3 601 428.7 601 385.8 601C343 601 300 601 257.2 601C214.3 601 171.7 601 128.8 601C86 601 43 601 21.5 601L0 601Z" fill="#d53867"></path><path d="M0 524L21.5 529C43 534 86 544 128.8 551.3C171.7 558.7 214.3 563.3 257.2 561C300 558.7 343 549.3 385.8 544.2C428.7 539 471.3 538 514.2 533.5C557 529 600 521 642.8 524.7C685.7 528.3 728.3 543.7 771.2 550.8C814 558 857 557 878.5 556.5L900 556L900 601L878.5 601C857 601 814 601 771.2 601C728.3 601 685.7 601 642.8 601C600 601 557 601 514.2 601C471.3 601 428.7 601 385.8 601C343 601 300 601 257.2 601C214.3 601 171.7 601 128.8 601C86 601 43 601 21.5 601L0 601Z" fill="#c62368"></path></svg>